<svg height="512" viewBox="0 0 512 512" width="512" xmlns="http://www.w3.org/2000/svg"><g><g><path d="m168 232h176v176h-176z" fill="#a78966"/><circle cx="256" cy="320" fill="#e0e0e2" r="64"/><path d="m256 280v40h24" fill="#e0e0e2"/><path d="m176 200h160v32h-160z" fill="#cca400"/><path d="m319 200h-126l40-48h46z" fill="#a78966"/><path d="m232 120h48v32h-48z" fill="#cca400"/><path d="m272 120h-32l8-80h16z" fill="#a78966"/><path d="m184 496v-88h144v88" fill="#a78966"/><path d="m184 408h144v24h-144z" fill="#cca400"/><path d="m304 103a40 40 0 0 0 40 40h104a32 32 0 1 0 0-64c-.46 0-.93.01-1.39.03a52.006 52.006 0 0 0 -94.9-15.28 40 40 0 0 0 -47.71 39.25z" fill="#e0e0e2"/><g fill="#acabb1"><path d="m344 368h47.385a27.077 27.077 0 1 0 0-54.154c-.39 0-.787.009-1.177.026a44 44 0 0 0 -42.823-33.872"/><path d="m167.726 368a52.018 52.018 0 0 0 -72.016 16.75 40 40 0 1 0 -7.71 79.25h96"/></g></g><g><path d="m256 248a72 72 0 1 0 72 72 72.081 72.081 0 0 0 -72-72zm0 128a56 56 0 1 1 56-56 56.063 56.063 0 0 1 -56 56z"/><path d="m280 312h-16v-32a8 8 0 0 0 -16 0v40a8 8 0 0 0 8 8h24a8 8 0 0 0 0-16z"/><path d="m256 456a8 8 0 0 0 -8 8v32a8 8 0 0 0 16 0v-32a8 8 0 0 0 -8-8z"/><path d="m224 456a8 8 0 0 0 -8 8v32a8 8 0 0 0 16 0v-32a8 8 0 0 0 -8-8z"/><path d="m288 456a8 8 0 0 0 -8 8v32a8 8 0 0 0 16 0v-32a8 8 0 0 0 -8-8z"/><path d="m486.74 101.01a39.99 39.99 0 0 0 -34.06-29.74 60.014 60.014 0 0 0 -104.8-16.11c-1.3-.11-2.59-.16-3.88-.16a48 48 0 0 0 0 96h104a40.026 40.026 0 0 0 38.74-49.99zm-38.74 33.99h-104a32 32 0 1 1 6.17-63.4 8 8 0 0 0 8.35-3.65 44 44 0 0 1 80.3 12.91 8.047 8.047 0 0 0 8.15 6.16c.34-.01.69-.02 1.03-.02a23.971 23.971 0 0 1 23.24 18 23.611 23.611 0 0 1 .76 6 24.032 24.032 0 0 1 -24 24z"/><path d="m425.36 332.16a35.064 35.064 0 0 0 -29.1-25.98 51.712 51.712 0 0 0 -44.26-33.97v-40.21a8 8 0 0 0 -8-8v-40a8 8 0 0 0 -16 0v8h-5.25l-34.75-41.7v-30.3a8 8 0 0 0 -8-8h-.76l-7.28-72.8a8 8 0 0 0 -7.96-7.2v-16a8 8 0 0 0 -16 0v16a8 8 0 0 0 -7.96 7.2l-7.28 72.8h-.76a8 8 0 0 0 -8 8v30.3l-34.75 41.7h-5.25v-8a8 8 0 0 0 -16 0v40a8 8 0 0 0 -8 8v123.43a60.007 60.007 0 0 0 -68.12 20.73c-1.3-.11-2.59-.16-3.88-.16a48 48 0 0 0 0 96h88v24a8 8 0 0 0 16 0v-56h128v56a8 8 0 0 0 16 0v-80h8a8 8 0 0 0 8-8v-32h39.38a35.119 35.119 0 0 0 33.98-43.84zm-170.12-284.16h1.52l6.4 64h-14.32zm-15.24 80h32v16h-32zm-3.25 32h38.5l26.67 32h-91.84zm-52.75 48h144v16h-144zm-8 248h-88a32 32 0 1 1 6.17-63.4 8 8 0 0 0 8.35-3.65 43.972 43.972 0 0 1 57.48-16.13v35.18a8 8 0 0 0 8 8h8zm144-32h-128v-8h128zm16-24h-160v-160h160zm55.38-40h-39.38v-71.71a35.805 35.805 0 0 1 30.42 27.41 7.994 7.994 0 0 0 8.13 6.16c.28-.01.56-.01.83-.01a19.075 19.075 0 1 1 0 38.15z"/></g></g></svg>