<svg id="Layer_5" enable-background="new 0 0 64 64" height="512" viewBox="0 0 64 64" width="512" xmlns="http://www.w3.org/2000/svg"><g><g><path d="m30.589 6.116c-.73 1.888-2.33 3.475-3.896 5.021-1.899 1.876-3.693 3.647-3.693 5.863 0 3.277 1.231 5.903 1.838 7h14.323c.608-1.097 1.839-3.723 1.839-7 0-2.216-1.794-3.987-3.693-5.863-1.566-1.546-3.166-3.133-3.896-5.021-.873-.688-1.411-1.385-1.411-2.116 0 .731-.538 1.428-1.411 2.116z" fill="#f0bc5e"/></g><g><g><path d="m32 46c-1.654 0-3-1.346-3-3s1.346-3 3-3 3 1.346 3 3-1.346 3-3 3z" fill="#f0bc5e"/></g></g><g><g><path d="m37 62h-10v-11h10z" fill="#f0bc5e"/></g></g><path d="m61 43v-13c0-6.065-4.935-11-11-11h-1.312c.191-.675.312-1.353.312-2 0-3.925-5.188-6.486-9.766-8.746-2.777-1.371-6.234-3.078-6.234-4.254v-3h-2v3c0 1.176-3.457 2.883-6.234 4.254-4.578 2.26-9.766 4.821-9.766 8.746 0 .647.121 1.325.312 2h-1.313c-6.065 0-11 4.935-11 11v13h-2v20h62.001v-20zm-38 6h18v12h-18zm.059-2c.499-4.493 4.316-8 8.941-8s8.442 3.507 8.941 8zm8.941-10c-6.065 0-11 4.935-11 11v13h-2v-26h26v26h-2v-13c0-6.065-4.935-11-11-11zm-19.001 12v12h-6v-12zm2 0h2.001v12h-2.001zm.185-16c.302.847.969 1.514 1.816 1.816v2.184h-8.001c0-2.206 1.794-4 4-4zm2.816-8h28c.552 0 1 .449 1 1v6c0 .551-.448 1-1 1h-3v-3c0-1.654-1.346-3-3-3h-16c-1.654 0-3 1.346-3 3v3h-3c-.552 0-1-.449-1-1v-6c0-.551.448-1 1-1zm30.816 8h2.184c2.206 0 4 1.794 4 4h-8v-2.184c.847-.302 1.514-.969 1.816-1.816zm-1.816 10v-4h8v4zm-24-10v-3c0-.551.448-1 1-1h4v4zm7-4h4v4h-4zm6 0h4c.552 0 1 .449 1 1v3h-5zm-27.001 10h8.001v4h-8.001zm38.001 10h2v12h-2zm4 0h6v12h-6zm-4-2v-2h14v2zm10-4v-6c0-3.309-2.691-6-6-6h-2v-2h9.941c.037.329.059.662.059 1v13zm-9.069-22h2.069c3.91 0 7.236 2.51 8.475 6h-9.475v-1c0-1.38-.941-2.532-2.211-2.881.363-.593.772-1.322 1.142-2.119zm-22.281-10.952c2.733-1.349 5.083-2.509 6.35-3.848 1.267 1.338 3.617 2.499 6.35 3.848 3.853 1.903 8.65 4.27 8.65 6.952 0 1.955-1.619 4.7-2.516 6h-24.969c-.897-1.297-2.515-4.039-2.515-6 0-2.682 4.797-5.049 8.65-6.952zm-11.651 10.952h2.07c.37.797.779 1.526 1.142 2.119-1.27.349-2.211 1.501-2.211 2.881v1h-9.476c1.239-3.49 4.565-6 8.475-6zm-9 9c0-.338.022-.671.059-1h9.942v2h-2.001c-3.309 0-6 2.691-6 6v6h-2zm12.001 15v2h-14.001v-2zm-14.001 4h2v12h-2zm56.001 12v-12h2v12z"/></g></svg>